<?xml version="1.0" encoding="UTF-8" standalone="no"?>
<!-- Created with Inkscape (http://www.inkscape.org/) -->

<svg
   xmlns:dc="http://purl.org/dc/elements/1.1/"
   xmlns:cc="http://creativecommons.org/ns#"
   xmlns:rdf="http://www.w3.org/1999/02/22-rdf-syntax-ns#"
   xmlns:svg="http://www.w3.org/2000/svg"
   xmlns="http://www.w3.org/2000/svg"
   xmlns:sodipodi="http://sodipodi.sourceforge.net/DTD/sodipodi-0.dtd"
   xmlns:inkscape="http://www.inkscape.org/namespaces/inkscape"
   width="95mm"
   height="115mm"
   viewBox="0 0 95 115"
   version="1.1"
   id="svg8"
   inkscape:version="0.92.3 (2405546, 2018-03-11)"
   sodipodi:docname="zachranbabu.svg">
  <defs
     id="defs2" />
  <sodipodi:namedview
     id="base"
     pagecolor="#ffffff"
     bordercolor="#666666"
     borderopacity="1.0"
     inkscape:pageopacity="0.0"
     inkscape:pageshadow="2"
     inkscape:zoom="0.98994949"
     inkscape:cx="54.183426"
     inkscape:cy="336.0956"
     inkscape:document-units="mm"
     inkscape:current-layer="layer1"
     showgrid="false"
     inkscape:window-width="1884"
     inkscape:window-height="1059"
     inkscape:window-x="36"
     inkscape:window-y="0"
     inkscape:window-maximized="1" />
  <metadata
     id="metadata5">
    <rdf:RDF>
      <cc:Work
         rdf:about="">
        <dc:format>image/svg+xml</dc:format>
        <dc:type
           rdf:resource="http://purl.org/dc/dcmitype/StillImage" />
        <dc:title></dc:title>
      </cc:Work>
    </rdf:RDF>
  </metadata>
  <g
     inkscape:label="Layer 1"
     inkscape:groupmode="layer"
     id="layer1"
     transform="translate(0,-182)">
    <path
       style="fill:#000000;stroke-width:0.57053608"
       d="m 56.848997,183.93804 c -0.605718,0.74861 -1.089856,2.22857 -1.089856,3.33158 0,1.60617 0.49652,2.46727 2.603977,4.51548 2.017913,1.96119 2.563505,2.87267 2.424657,4.0504 -0.167074,1.41727 -0.464312,1.56765 -4.405931,2.22881 -2.324677,0.38993 -4.827628,0.85995 -5.562452,1.04438 -1.655144,0.41541 -1.72534,-0.43875 -0.195337,-2.38384 1.460365,-1.85654 1.447247,-3.60593 -0.04134,-5.49837 -0.865262,-1.1 -1.705102,-1.50378 -3.131592,-1.50378 -2.38242,0 -9.190443,2.59926 -10.947652,4.17959 -2.735778,2.46039 -0.93387,6.75916 3.177585,7.58145 2.649514,0.5299 2.717385,1.16304 0.265616,2.46341 -1.187813,0.63 -3.314764,2.03555 -4.726843,3.12384 l -2.567286,1.97869 -1.337384,-1.24798 c -1.20732,-1.12654 -1.302015,-1.56854 -0.968933,-4.54236 0.349361,-3.1192 0.278669,-3.38519 -1.328603,-4.99246 -2.770582,-2.77058 -4.728496,-2.2637 -9.674344,2.50424 -4.792406,4.62002 -5.633008,6.96307 -3.480408,9.69967 1.037587,1.31908 1.59304,1.50326 4.53254,1.50326 2.675858,0 3.657758,0.26453 4.879805,1.31568 l 1.530139,1.3162 -2.496487,3.72536 c -1.373097,2.04908 -2.77822,4.2117 -3.122292,4.80591 -0.559851,0.96684 -0.702059,0.84212 -1.353921,-1.19011 -1.497483,-4.66853 -5.273508,-6.3854 -7.819162,-3.55483 -1.446808,1.60875 -4.2464997,8.65585 -4.3087797,10.84586 -0.097482,3.42863 4.7984867,5.47632 7.4202187,3.10368 1.295524,-1.17243 2.648214,-1.27665 2.224154,-0.17156 -0.168426,0.43891 -0.598287,2.42843 -0.955498,4.42143 -1.150623,6.41968 -1.054894,6.19135 -2.597259,6.19135 -0.970758,0 -2.324772,-0.92062 -4.1971586,-2.85305 -2.846207,-2.93749 -4.0541362,-3.34485 -6.5489533,-2.20814 -2.18786713,0.99686 -2.76497444,3.18238 -2.54506434,9.64128 0.179629,5.27581 0.31721071,5.88904 1.54409194,6.88175 0.7486099,0.60571 2.2285684,1.08985 3.3315795,1.08985 1.6020489,0 2.4655309,-0.49473 4.4798283,-2.56728 2.4902295,-2.56226 5.1803375,-3.44949 5.6249805,-1.85467 0.492866,1.76778 1.905976,10.43384 1.731677,10.62002 -0.106955,0.11424 -1.072745,-0.33501 -2.146123,-0.99839 -2.513565,-1.55347 -3.952578,-1.52283 -5.8683726,0.12506 -1.0732205,0.92315 -1.5331213,1.85209 -1.4996513,3.02927 0.063574,2.23593 2.8463429,9.27381 4.3103299,10.90166 2.460395,2.73578 6.759159,0.93387 7.58145,-3.17758 0.529902,-2.64951 1.163045,-2.7179 2.463416,-0.26613 0.629994,1.18782 2.035548,3.31528 3.12384,4.72736 l 1.978689,2.56728 -1.247984,1.33739 c -1.12654,1.20732 -1.568537,1.30201 -4.542358,0.96893 -3.1192,-0.34937 -3.385188,-0.27867 -4.99246,1.32861 -2.816077,2.81608 -2.10475,5.24772 2.965193,10.13529 4.698415,4.52941 6.549843,5.134 9.238713,3.01894 1.319083,-1.03759 1.503267,-1.59252 1.503267,-4.53202 0,-2.66715 0.265388,-3.65915 1.303795,-4.86637 l 1.304314,-1.51619 c 8.012375,5.25299 11.846544,8.51769 18.681099,9.34067 C 35.087394,281.82685 21.90799,262.2195 26.378004,236.26355 29.92142,222.8394 40.965285,211.86949 54.682218,208.14951 c 14.823739,-4.75498 31.598354,-0.58725 40.895955,4.41601 -3.105502,-3.85981 -1.844828,-2.43293 -5.992053,-6.12154 -4.495459,-2.9058 -2.401329,-3.86979 -1.167461,-4.55507 0.707991,-0.39321 1.655863,-0.72363 2.106332,-0.73484 1.54014,-0.038 3.460256,-2.42378 3.460256,-4.29948 0,-2.34589 -1.563654,-3.71319 -6.424933,-5.61929 -4.687999,-1.83817 -7.274642,-1.93959 -8.719881,-0.34262 -1.327412,1.46677 -1.374582,4.70039 -0.08888,6.12107 1.172432,1.29553 1.277165,2.64822 0.172085,2.22416 -0.438914,-0.16843 -2.428441,-0.59829 -4.421436,-0.9555 -6.419686,-1.15062 -6.191353,-1.05489 -6.191353,-2.59726 0,-0.97075 0.920104,-2.32477 2.852539,-4.19716 2.937482,-2.8462 3.344842,-4.05413 2.208129,-6.54895 -0.768421,-2.46426 -14.21394,-3.42383 -16.52252,-1.001 z"
       id="path155"
       inkscape:connector-curvature="0"
       sodipodi:nodetypes="csscsccsssssccccssssccccsscscssscscsscccssssccccccssscccccccccsssscssscc" />
  </g>
</svg>
